<?xml version="1.0" encoding="utf-8"?>
<!-- Generator: Adobe Illustrator 19.0.0, SVG Export Plug-In . SVG Version: 6.00 Build 0)  -->
<svg version="1.1" id="Layer_1" xmlns="http://www.w3.org/2000/svg" xmlns:xlink="http://www.w3.org/1999/xlink" x="0px" y="0px"
	 viewBox="0 0 1024 740.3" style="enable-background:new 0 0 1024 740.3;" xml:space="preserve">
<style type="text/css">
	.st0{fill:url(#XMLID_48_);}
	.st1{fill:#FFCC33;}
	.st2{fill:#FFFFFF;}
	.st3{opacity:0.1;fill:#99FFFF;}
	.st4{fill:#256653;}
	.st5{fill:#3C8F7C;}
	.st6{fill:#327F6B;}
	.st7{fill:#50BFA5;}
	.st8{fill:#96D9C9;}
	.st9{fill:#F8A492;}
	.st10{fill:#355389;}
	.st11{fill:#FE875E;}
	.st12{fill:#13375B;}
	.st13{fill:#F7CC7F;}
	.st14{fill:#F48C7F;}
	.st15{fill:#F7A491;}
	.st16{fill:#466EB6;}
	.st17{fill:#F47458;}
	.st18{fill:#DD513A;}
	.st19{fill:#E0973F;}
	.st20{fill:#0E2E35;}
	.st21{fill:#184655;}
	.st22{fill:#6A97CE;}
	.st23{fill:#9BC1F9;}
</style>
<g id="XMLID_138_">
	<linearGradient id="XMLID_48_" gradientUnits="userSpaceOnUse" x1="297.0296" y1="203.5422" x2="759.1274" y2="665.64">
		<stop  offset="0" style="stop-color:#66CCCC"/>
		<stop  offset="1" style="stop-color:#669999"/>
	</linearGradient>
	<path id="XMLID_98_" class="st0" d="M745.5,671.6H310.7c-10.2,0-18.5-8.3-18.5-18.5V216c0-10.2,8.3-18.5,18.5-18.5h434.8
		c10.2,0,18.5,8.3,18.5,18.5v437.1C764,663.3,755.7,671.6,745.5,671.6z"/>
	<g id="XMLID_59_">
		<g id="XMLID_61_">
			<g id="XMLID_21_">
				<path id="path91088_8_" class="st1" d="M364.1,473.9l21.2,38.7l21.2-38.7H364.1z M541.6,473.9l-26.8,48.1H666l-45.3,85.8
					l-0.3,0.5c0,0,0,0,0,0c-4.7,9.2,0.3,15.5,7,15.5h37.3l72.4-135.2c0,0,0,0,0,0c4.8-9.2,0.9-14.6-5.7-14.6L541.6,473.9z"/>
				<path id="path91090_8_" class="st1" d="M553.8,219.1L385.2,527l-34.6-63.1l-30.5,18.6c0,0,0,0,0,0c-5.2,3.2-6.4,10.1-1.2,19.6
					l0,0l66.3,121.2L598,234.4c0,0,0,0,0-0.1c5.1-9.4,1.4-15.4-5.3-15.4L553.8,219.1z"/>
				<path id="path91092_8_" class="st1" d="M620.3,219.1L406.1,607.8c0,0,0,0,0,0.1c-5.1,9.4-0.3,15.8,6.4,15.8h37.6l214.6-389.4
					c0,0,0,0,0-0.1c5.1-9.4,1.6-15.2-5.1-15.2L620.3,219.1z"/>
			</g>
			<g id="XMLID_18_">
				<path id="path91088_7_" class="st1" d="M364.1,473.9l21.2,38.7l21.2-38.7H364.1z M541.6,473.9l-26.8,48.1H666l-45.3,85.8
					l-0.3,0.5c0,0,0,0,0,0c-4.7,9.2,0.3,15.5,7,15.5h37.3l72.4-135.2c0,0,0,0,0,0c4.8-9.2,0.9-14.6-5.7-14.6L541.6,473.9z"/>
				<path id="path91090_7_" class="st2" d="M553.8,219.1L385.2,527l-34.6-63.1l-30.5,18.6c0,0,0,0,0,0c-5.2,3.2-6.4,10.1-1.2,19.6
					l0,0l66.3,121.2L598,234.4c0,0,0,0,0-0.1c5.1-9.4,1.4-15.4-5.3-15.4L553.8,219.1z"/>
				<path id="path91092_7_" class="st1" d="M620.3,219.1L406.1,607.8c0,0,0,0,0,0.1c-5.1,9.4-0.3,15.8,6.4,15.8h37.6l214.6-389.4
					c0,0,0,0,0-0.1c5.1-9.4,1.6-15.2-5.1-15.2L620.3,219.1z"/>
			</g>
		</g>
		<path id="path91094_3_" class="st2" d="M513.5,528.4l-30.2,48.1H568l-14.2,25l-0.7,1.3l0,0c-4.5,8.7,1.6,14.5,8.9,14.5h42
			l44.4-74.3c5.3-9.1,1.4-14.6-6-14.6L513.5,528.4z"/>
	</g>
</g>
<g id="XMLID_312_">
	<path id="XMLID_310_" class="st3" d="M111.2,712.3h861.2c71.4-59.5,34.6-238.7-25-275c-64.2-39.1,37.7-174.3-61.1-218.2
		c-64.5-28.7-167.2,2.6-153.4-74.1C752,38.6,528.2,11.4,363.3,40C185,71,347.8,223.3,151.7,254C50.9,269.8,70.4,404.8,79.8,432.7
		c8.2,24.3,62.3,62.8-12.9,115.9C-43.5,626.5,108.6,710.8,111.2,712.3z"/>
	<g id="XMLID_496_">
		<g id="XMLID_528_">
			<path id="XMLID_309_" class="st4" d="M876.1,257.5c0,0-14.1,30.7-23.6,43.7c-9.5,13-18.5,25.4-26.1,61.3
				c-7.6,36-6.3,39.6-8.3,48.9c-2.1,9.3-15.6,46.9-15.6,53.9c-0.1,6.9-27.2,46.2-34.2,64.6c-7,18.4-19.3,44.7-18.6,58.1l3.1-0.8
				c0,0,2.5-31.2,24-62.7c21.5-31.5,18.4-37.5,42.8-53.7c24.4-16.2,40.1-60.9,40.1-60.9s24.8-48.6,23.7-73.9
				C882.2,310.7,888.8,287.9,876.1,257.5z"/>
			<path id="XMLID_308_" class="st4" d="M843.1,210.3c0,0-0.8,20.2-7.3,32.1c-6.5,12-12.1,19.3-13.3,32.2
				c-1.2,13-5.3,46.4-23.4,62.7c-18.1,16.3-20.4,65.2-34.3,80C751,432,749.2,442.7,751.8,468c2.5,25.4,11.2,60.5-8.8,106.4
				l-4.5-11.4c0,0,14.3-37.7,10.9-59.8s-15.5-55.5-11.1-71.5c4.4-16-12-19.1-2.1-43.4c9.9-24.2,5.8-32.6,19.3-53.6
				c0,0,1.4-1,4.9-18.7c3.5-17.7,32.1-50.2,45.2-61.3C818.6,243.7,837.6,226,843.1,210.3z"/>
			<path id="XMLID_307_" class="st5" d="M789.5,310.1c0,0-15.7,27-16,44.3c-0.2,17.4,1.7,31.5-6.3,55.2c-8,23.8,7.8,38.8,3.3,51.9
				c-4.6,13.1-4.9,28.7-4.8,40.4c0.1,11.8-18,50.8-20.8,70.5c-2.8,19.7,0.8,19.8,0.8,19.8s3-26.1,7.2-34.7
				c4.2-8.6,16.9-38.3,19.9-49.8c3-11.5,11-18.9,18-38.3c6.9-19.5,16.8-35.9,16.1-63.5C806.1,378.4,817.2,349.2,789.5,310.1z"/>
			<path id="XMLID_306_" class="st5" d="M756.2,574.2c0,0,7.3-34.2,38.3-37.6c31-3.4,49.2,2.7,71-22.3c21.9-25,34.6-64.7,41.6-71.5
				c0,0-11-5.7-29.3,11.4c-18.3,17.1-31.1,30-41.7,40s-19.2,3.5-30.3,10c-9.4,5.5-21.5,21.4-26.8,29.7c-1.7,2.7-3.8,5.2-6.1,7.4
				c-2.1,2-4.7,4.4-6.3,6.2c-3.3,3.6-12.7,26.9-12.7,26.9L756.2,574.2z"/>
			<path id="XMLID_305_" class="st5" d="M745.3,568.2c0,0,10.9-41.8,3.6-62.3c-7.3-20.5-30.2-35.6-29.3-48.5
				c0.9-12.9,15.6-47.6,3.6-73.5c0,0-4.6,23.1-9,28.2c-4.5,5.1-35.3,25.8-29.8,53.2c5.5,27.4,35.4,33.7,42.8,41.8
				c7.4,8.1,17.3,8,17.4,13.4c0.1,5.4,2,24.8-1.3,44L745.3,568.2z"/>
			<path id="XMLID_304_" class="st6" d="M757.2,540.2l15.3-44.2c0,0,9-35.5,14.2-65.1c5.2-29.6,2.8-120.8,2.8-120.8
				s-15.7,27-16,44.3c-0.2,17.4,1.7,31.5-6.3,55.2c-8,23.8,7.8,38.8,3.3,51.9c-4.6,13.1-4.9,28.7-4.8,40.4s-18,50.8-20.8,70.5
				c-1.5,10.8-1.1,15.7-0.5,17.9C742,573.2,757.2,540.2,757.2,540.2z"/>
			<path id="XMLID_303_" class="st6" d="M832.7,513.9c-13.7,2.7-25.9,1.8-42.1,13.9c-16.2,12.1-25.8,25-25.8,25s-7.3,13-10.3,19.9
				c-0.4,1.1-0.7,1.7-0.7,1.7l2.4-0.1c0,0,7.3-34.2,38.3-37.6c31-3.4,49.2,2.7,71-22.3c21.9-25,34.6-64.7,41.6-71.5
				c0,0-23.3,18.1-37.6,34.1C855.1,492.9,846.4,511.1,832.7,513.9z"/>
			<path id="XMLID_302_" class="st6" d="M714.2,412.1c-4.5,5.1-35.3,25.8-29.8,53.2c5.5,27.4,35.4,33.7,42.8,41.8
				c7.4,8.1,17.3,8,17.4,13.4c0.1,5.4,2,24.8-1.3,44l0.9,1.6c1.6-7.5,3.9-18.9,4.6-27.6c1.2-14.1-1.1-19.9-5.6-31.3
				c-4.5-11.4-32.6-34.6-39.7-46.9c-7-12.2,13.6-32.6,18.2-42.5c4.6-9.9,1.7-34,1.7-34S718.7,406.9,714.2,412.1z"/>
		</g>
		<g id="XMLID_497_">
			<path id="XMLID_301_" class="st7" d="M787.3,548l4.8-11.6c3.7-8.6,13.3-12.6,21.3-9.1l0,0c20.3,8.9,29.1,33.5,19.7,55.1
				l-6.9,15.8c-3,6.9-2,14.5,2.1,19.9c3.7,4.9,4.3,11.6,1.7,17.5l-3.6,8.3c-3.9,9-11.6,15.7-20.6,18.4c-5.3,1.6-10,5.6-12.5,11.3
				l-5.1,11.8c-5.7,13-20.2,19.2-32.5,13.9l-7-3.1c-12.2-5.3-17.6-20.2-11.9-33.2l0,0c9.2-15.6,8.5-27.2,5.2-35
				c-4.8-11.6-4.7-24.9,0.4-36.8l0.7-1.7c5.5-12.5,16-21.9,28.6-25.9C777.4,561.7,783.2,557.3,787.3,548z"/>
			<path id="XMLID_300_" class="st8" d="M700.6,712.3c9.9-12.8,63.9-81.2,99.1-92.6c38.9-12.6,2.2,37.4,2.2,37.4s69-75.4,94.3-68.6
				c23.2,6.2,0,53,0,53s26.1-25.9,57.8-25.9c30.8,0-21.5,91.8-24.4,96.7H700.6z"/>
			<g id="XMLID_508_">
				<g id="XMLID_524_">
					<path id="XMLID_299_" class="st5" d="M908.5,564.2c-28.2,44-48.7,92.9-60.5,144.8l-1.9-0.5c11.7-50.8,32.1-99.7,60.3-143.6
						c6.5-10.2,13.6-22.3,25.8-26.3c0.2-0.1,0.3,0.3,0.1,0.4C921.1,543.2,914.6,554.7,908.5,564.2z"/>
				</g>
				<g id="XMLID_522_">
					<path id="XMLID_298_" class="st5" d="M854.8,710.9c31.5-42.8,69.8-82.4,115.3-116.8c0.5-0.3,1.1,0.4,0.6,0.8
						c-43.2,33.2-81.4,72.4-113.5,116.7L854.8,710.9z"/>
				</g>
				<path id="XMLID_297_" class="st5" d="M911,537c0.7,1.1,3.5,3.8,4.3,7.5c1.1,3.5,0.2,7.8,0.1,7.7c-0.2,0.1,3.2-2.8,4.3-7.4
					c1.4-4.4,0.4-10.5-1.3-12.6c-3-4.6-8.2-5.1-9.2-2.8C908.2,531.5,909.6,534.5,911,537z"/>
				<path id="XMLID_296_" class="st5" d="M917.8,576.2c-1.1-0.7-3.8-3.6-7.4-4.5c-3.4-1.2-7.8-0.4-7.7-0.3c-0.1,0.2,2.9-3.2,7.5-4.1
					c4.4-1.3,10.5-0.2,12.5,1.6c4.5,3.1,4.9,8.3,2.6,9.2C923.2,579.2,920.2,577.7,917.8,576.2z"/>
				<path id="XMLID_295_" class="st5" d="M907.6,593.5c-1.1-0.7-3.8-3.6-7.4-4.5c-3.4-1.2-7.8-0.4-7.7-0.3c-0.1,0.2,2.9-3.2,7.5-4.1
					c4.4-1.3,10.5-0.2,12.5,1.6c4.5,3.1,4.9,8.3,2.6,9.2C913,596.4,910,595,907.6,593.5z"/>
				<path id="XMLID_294_" class="st5" d="M943.9,633.4c-1.1-0.7-3.8-3.6-7.4-4.5c-3.4-1.2-7.8-0.4-7.7-0.3c-0.1,0.2,2.9-3.2,7.5-4.1
					c4.4-1.3,10.5-0.2,12.5,1.6c4.5,3.1,4.9,8.3,2.6,9.2C949.3,636.3,946.3,634.9,943.9,633.4z"/>
				<path id="XMLID_293_" class="st5" d="M962.4,617.1c-1.1-0.7-3.8-3.6-7.4-4.5c-3.4-1.2-7.8-0.4-7.7-0.3c-0.1,0.2,2.9-3.2,7.5-4.1
					c4.4-1.3,10.5-0.2,12.5,1.6c4.5,3.1,4.9,8.3,2.6,9.2C967.8,620,964.8,618.6,962.4,617.1z"/>
				<path id="XMLID_292_" class="st5" d="M896.8,556.4c0.9,0.9,4.1,3.2,5.4,6.7c1.6,3.3,1.5,7.7,1.3,7.5c-0.2,0.1,2.7-3.3,3.1-8
					c0.7-4.6-1.3-10.5-3.3-12.2c-3.7-4.1-8.9-3.7-9.5-1.3C893.2,551.5,895,554.3,896.8,556.4z"/>
				<path id="XMLID_291_" class="st5" d="M881.8,576c1.3,0.7,5.7,1.9,7.9,5.2c2.5,2.9,2.8,7.9,2.7,7.8c-0.2,0.2,3.1-4.8,3-10.2
					c0.3-5.4-2.9-11.1-5.7-12.2c-5.2-3-11.9-0.3-12.5,2.6C876.5,572,879.2,574.3,881.8,576z"/>
				<path id="XMLID_290_" class="st5" d="M866.1,605.5c1.4,0.4,5.9,0.9,8.6,3.8c3,2.5,4.1,7.4,3.9,7.3c-0.2,0.3,2.3-5.3,1.2-10.6
					c-0.6-5.4-4.7-10.5-7.7-11.1c-5.7-2-11.8,1.7-11.9,4.6C860.2,602.6,863.2,604.4,866.1,605.5z"/>
				<path id="XMLID_289_" class="st5" d="M912.7,626.1c1,0.6,4.5,1.9,6.1,4.7c1.9,2.5,1.8,6.6,1.7,6.5c-0.2,0.2,2.8-3.8,3-8.2
					c0.6-4.4-1.7-9.2-4-10.3c-4.1-2.7-9.7-0.9-10.3,1.4C908.6,622.6,910.6,624.7,912.7,626.1z"/>
				<path id="XMLID_288_" class="st5" d="M936.9,543.9c-0.6-0.5-2.1-2.3-4.2-3c-2-0.8-4.6-0.6-4.5-0.5c-0.1,0.1,1.8-1.7,4.6-2.1
					c2.7-0.6,6.2,0.3,7.3,1.5c2.5,2,2.5,5.1,1.2,5.6C940,545.8,938.3,544.9,936.9,543.9z"/>
				<path id="XMLID_287_" class="st5" d="M931.3,531.3c0,0.8,0.5,3-0.2,5.1c-0.5,2.1-2.4,4-2.4,3.9c-0.1,0,2.5-0.4,4.5-2.4
					c2.1-1.8,3.5-5.2,3.3-6.7c0-3.2-2.5-5.1-3.7-4.3C931.6,527.7,931.3,529.6,931.3,531.3z"/>
				<path id="XMLID_286_" class="st5" d="M975.8,600.4c-0.6-0.5-2.1-2.3-4.2-3c-2-0.8-4.6-0.6-4.5-0.5c-0.1,0.1,1.8-1.7,4.6-2.1
					c2.7-0.6,6.2,0.3,7.3,1.5c2.5,2,2.5,5.1,1.2,5.6C978.8,602.4,977.1,601.4,975.8,600.4z"/>
				<path id="XMLID_285_" class="st5" d="M969,587.7c0.1,0.8,0.8,3,0.2,5.1c-0.4,2.1-2,4.2-2,4.1c-0.1,0,2.5-0.6,4.3-2.7
					c1.9-1.9,3.1-5.4,2.8-7c-0.3-3.2-2.9-4.9-4-4C969,584.1,968.9,586.1,969,587.7z"/>
			</g>
			<g id="XMLID_498_">
				<g id="XMLID_506_">
					<path id="XMLID_284_" class="st5" d="M964.2,669.7c-28.8,3.2-55.6,15.9-81.4,28.2c-17.4,8.4-16.5,10.7-20.1,12
						c-0.6,0.2-1.1-0.4-0.9-1c1.4-2.7,4.9-4.5,7.4-6.1c2.9-1.8,5.9-3.4,9-4.9c6.6-3.2,13.3-6.1,20-9c13.6-5.9,27.5-11.5,41.8-15.2
						c7.9-2.1,15.9-3.6,24-4.3C964.4,669.4,964.4,669.6,964.2,669.7L964.2,669.7z"/>
				</g>
				<path id="XMLID_283_" class="st5" d="M938.3,660.7c0.2,1.2,1.4,4.6,0.7,8c-0.4,3.3-2.9,6.6-2.9,6.5c-0.2,0,3.8-1.1,6.5-4.5
					c2.9-3.2,4.5-8.7,3.9-11c-0.7-5-4.9-7.5-6.6-6C938.1,655.1,938,658.1,938.3,660.7z"/>
				<path id="XMLID_282_" class="st5" d="M912.9,669.8c0.2,1.2,1.4,4.6,0.7,8c-0.4,3.3-2.9,6.6-2.9,6.5c-0.2,0,3.8-1.1,6.5-4.5
					c2.9-3.2,4.5-8.7,3.9-11c-0.7-5-4.9-7.5-6.6-6C912.7,664.1,912.7,667.2,912.9,669.8z"/>
				<path id="XMLID_281_" class="st5" d="M887.2,681.3c0.2,1.2,1.4,4.6,0.7,8c-0.4,3.3-2.9,6.6-2.9,6.5c-0.2,0,3.8-1.1,6.5-4.5
					c2.9-3.2,4.5-8.7,3.9-11c-0.7-5-4.9-7.5-6.6-6C887,675.6,886.9,678.7,887.2,681.3z"/>
				<path id="XMLID_280_" class="st5" d="M945.9,684.4c-0.5-1-1.5-4.2-4-6.3c-2.2-2.2-5.8-3.3-5.8-3.1c-0.1,0.1,3.4-1.3,7.3-0.3
					c3.9,0.7,8.2,3.9,9,6c2.3,4.1,0.6,8.2-1.5,8.1C948.9,688.7,947.1,686.5,945.9,684.4z"/>
				<path id="XMLID_279_" class="st5" d="M919.5,693.7c-0.5-1-1.5-4.2-4-6.3c-2.2-2.2-5.8-3.3-5.8-3.1c-0.1,0.1,3.4-1.3,7.3-0.3
					c3.9,0.7,8.2,3.9,9,6c2.3,4.1,0.6,8.2-1.5,8.1C922.5,698,920.8,695.8,919.5,693.7z"/>
				<path id="XMLID_278_" class="st5" d="M965.9,674.8c-0.5-0.5-1.5-2.4-3.3-3.4c-1.7-1.1-4.1-1.3-4-1.2c-0.1,0.1,2-1.3,4.6-1.2
					c2.5-0.1,5.6,1.4,6.4,2.6c2,2.3,1.5,5.1,0.1,5.3C968.4,677.1,967,675.9,965.9,674.8z"/>
				<path id="XMLID_277_" class="st5" d="M962.9,662.4c-0.1,0.7,0,2.9-1.1,4.6c-0.8,1.8-2.8,3.2-2.8,3.1c-0.1,0,2.3,0.1,4.5-1.4
					c2.2-1.3,4.1-4.1,4.2-5.6c0.5-3-1.4-5.1-2.7-4.6C963.8,659.2,963.2,660.9,962.9,662.4z"/>
			</g>
		</g>
	</g>
	<g id="XMLID_481_">
		<g id="XMLID_494_">
			<path id="XMLID_276_" class="st5" d="M221.8,493.7c-33.8-30.1-51.2-73.4-59.8-104.5c-9.4-33.7-10.7-60.5-10.7-60.8l-1.8-0.1
				c0,0.3,1.4,27.3,10.8,61.2c8.7,31.3,26.3,75.1,60.5,105.6L221.8,493.7z"/>
		</g>
		<g id="XMLID_492_">
			<path id="XMLID_275_" class="st5" d="M155.1,320.7c1.7,7.8,0.3,15.1-3.3,20.4c-5.6-4.1-10-10.7-11.6-18.4
				c-1.7-7.8-0.3-15.1,3.3-20.4C149.1,306.4,153.5,312.9,155.1,320.7z"/>
		</g>
		<g id="XMLID_490_">
			<path id="XMLID_274_" class="st5" d="M144.8,342.8c5.8,5.4,9.2,12.5,9.9,19.4c-6.4,0.3-13.4-2.3-19.3-7.7
				c-5.8-5.4-9.2-12.5-9.9-19.4C131.9,334.7,138.9,337.3,144.8,342.8z"/>
		</g>
		<g id="XMLID_488_">
			<path id="XMLID_273_" class="st5" d="M142,365.9c7.2,2.3,13.2,7.3,16.7,13.4c-5.3,3.4-12.3,4.3-19.5,2.1
				c-7.2-2.3-13.2-7.3-16.7-13.4C127.7,364.6,134.8,363.7,142,365.9z"/>
		</g>
		<g id="XMLID_486_">
			<path id="XMLID_272_" class="st5" d="M153.2,393.8c5.7,1.8,10.3,6.4,12.9,12.3c-4.3,3.7-10,5-15.8,3.2
				c-5.7-1.8-10.3-6.4-12.9-12.3C141.7,393.4,147.4,392,153.2,393.8z"/>
		</g>
		<g id="XMLID_484_">
			<path id="XMLID_271_" class="st5" d="M163,354c4.5-4.5,10.5-6.5,16.3-5.9c0.3,6.1-1.8,12.3-6.3,16.9c-4.5,4.5-10.5,6.5-16.3,5.9
				C156.3,364.8,158.4,358.6,163,354z"/>
		</g>
		<g id="XMLID_482_">
			<path id="XMLID_270_" class="st5" d="M168.2,374c4.5-4.5,10.5-6.5,16.3-5.9c0.3,6.1-1.8,12.3-6.3,16.9
				c-4.5,4.5-10.5,6.5-16.3,5.9C161.6,384.8,163.7,378.6,168.2,374z"/>
		</g>
	</g>
	<g id="XMLID_466_">
		<g id="XMLID_479_">
			<path id="XMLID_269_" class="st7" d="M201.5,534.6c-31.2-4.6-57.9-23-74.9-37.8c-18.4-16-29.5-31.1-29.6-31.2l-1.1,0.6
				c0.1,0.2,11.3,15.4,29.8,31.4c17.1,14.9,44.1,33.5,75.7,38.2L201.5,534.6z"/>
		</g>
		<g id="XMLID_477_">
			<path id="XMLID_268_" class="st7" d="M96.3,459.6c3.9,3.9,5.9,8.7,5.9,13.1c-4.8-0.2-9.9-2.4-13.8-6.3c-3.9-3.9-5.9-8.7-5.9-13.1
				C87.3,453.6,92.3,455.8,96.3,459.6z"/>
		</g>
		<g id="XMLID_475_">
			<path id="XMLID_267_" class="st7" d="M98.7,476.4c5.5,0.9,10.2,3.7,13.2,7.5c-3.6,2.6-8.7,3.8-14.2,2.9
				c-5.5-0.9-10.2-3.7-13.2-7.5C88.2,476.7,93.3,475.5,98.7,476.4z"/>
		</g>
		<g id="XMLID_473_">
			<path id="XMLID_266_" class="st7" d="M106,491c5.1-1.5,10.5-0.8,14.9,1.4c-1.8,4-5.5,7.2-10.6,8.7c-5.1,1.5-10.5,0.8-14.9-1.4
				C97.2,495.7,101,492.4,106,491z"/>
		</g>
		<g id="XMLID_471_">
			<path id="XMLID_265_" class="st7" d="M123.2,502.9c4-1.1,8.5-0.2,12.2,2.2c-1.1,3.8-3.9,6.8-7.9,7.9c-4,1.1-8.5,0.2-12.2-2.2
				C116.4,507,119.2,504.1,123.2,502.9z"/>
		</g>
		<g id="XMLID_469_">
			<path id="XMLID_264_" class="st7" d="M113.6,476c0.9-4.4,3.6-7.8,7.2-9.7c2.5,3.4,3.7,7.9,2.8,12.2c-0.9,4.4-3.6,7.8-7.2,9.7
				C113.9,484.8,112.8,480.4,113.6,476z"/>
		</g>
		<g id="XMLID_467_">
			<path id="XMLID_263_" class="st7" d="M124.3,485.6c0.9-4.4,3.6-7.8,7.2-9.7c2.5,3.4,3.7,7.9,2.8,12.2c-0.9,4.4-3.6,7.8-7.2,9.7
				C124.6,494.4,123.5,490,124.3,485.6z"/>
		</g>
	</g>
	<g id="XMLID_449_">
		<g id="XMLID_464_">
			<path id="XMLID_262_" class="st8" d="M220.3,628.1c-36,13.7-75.7,6.5-102.6-2c-29.2-9.2-50.2-21.8-50.4-21.9l-0.8,1.5
				c0.2,0.1,21.3,12.8,50.7,22.1c27.2,8.6,67.2,15.8,103.7,2L220.3,628.1z"/>
		</g>
		<g id="XMLID_462_">
			<path id="XMLID_261_" class="st8" d="M62.9,596.8c6.5,2.5,11.6,7.5,14.2,13.3c-5.3,2.7-12,3.1-18.5,0.6
				c-6.5-2.5-11.6-7.5-14.2-13.3C49.7,594.7,56.3,594.3,62.9,596.8z"/>
		</g>
		<g id="XMLID_460_">
			<path id="XMLID_260_" class="st8" d="M75.6,617.1c6.4-2.2,13.1-1.5,18.6,1.4c-2.3,5.7-7,10.4-13.3,12.6
				c-6.4,2.2-13.1,1.5-18.6-1.4C64.6,624,69.3,619.3,75.6,617.1z"/>
		</g>
		<g id="XMLID_458_">
			<path id="XMLID_259_" class="st8" d="M92.2,631.3c4.5-5.1,10.7-7.6,16.7-7.5c0.5,6.3-1.5,12.8-6,17.9c-4.5,5.1-10.7,7.6-16.7,7.5
				C85.7,642.9,87.7,636.4,92.2,631.3z"/>
		</g>
		<g id="XMLID_456_">
			<path id="XMLID_258_" class="st8" d="M115.4,638.7c4.5-5.1,10.7-7.6,16.7-7.5c0.5,6.3-1.5,12.8-6,17.9
				c-4.5,5.1-10.7,7.6-16.7,7.5C108.9,650.3,110.9,643.7,115.4,638.7z"/>
		</g>
		<g id="XMLID_454_">
			<path id="XMLID_257_" class="st8" d="M93.6,614.9c-4-5.2-5.8-11.4-5.3-17.1c5.3,0.6,10.6,3.7,14.6,8.9c4,5.2,5.8,11.4,5.3,17.1
				C102.9,623.1,97.6,620.1,93.6,614.9z"/>
		</g>
		<g id="XMLID_452_">
			<path id="XMLID_256_" class="st8" d="M117.7,622.4c-4.1-5.1-5.9-11.4-5.6-17.1c5.3,0.5,10.7,3.5,14.7,8.6
				c4.1,5.1,5.9,11.4,5.6,17.1C127.1,630.5,121.7,627.6,117.7,622.4z"/>
		</g>
		<g id="XMLID_450_">
			<path id="XMLID_255_" class="st8" d="M145.9,640.7c1.1-2.7,3.2-4.6,5.7-5.4c1.2,2.5,1.4,5.5,0.3,8.2c-1.1,2.7-3.2,4.6-5.7,5.4
				C145,646.4,144.8,643.4,145.9,640.7z"/>
		</g>
	</g>
	<path id="XMLID_254_" class="st5" d="M297.6,709.6c0,0,45.9-181.5,30.7-199.7c-21-25.2-38.4,58.4-40.1,51.3
		c-16.1-67.1-20.4-152.9-72.2-161.9c-29.5-5.2,6.8,63.8,4.6,82.5c-2.2,18.7-55.3-43.3-87.6-75.7c-32.3-32.4-49-11.9-28.6,28.9
		c19.7,39.5,83.5,82.6,70.4,87.7c-13.2,5.1-93-45.8-102.8-24.1c-12,26.7,107.8,63,96.5,69c-11.3,6-68.5-13.8-67,6.7
		c1.6,20.4,78.5,19.7,77.2,28.6c-2.1,14.5-53-18.4-55.3,1.7c-2.3,20.6,67,16.8,65.8,32.9c-0.7,9.2-15.5-4.7-17.7,8.1
		c-5,29.1,86.3,64.6,86.3,64.6L297.6,709.6z"/>
	<g id="XMLID_445_">
		<path id="XMLID_253_" class="st7" d="M332.6,710.7c0,0-43.7-67-64.7-79.6c-22.4-13.5-5.3,26.9-5.3,26.9s-45.8-54.4-58.5-43.4
			c-12.7,11.1-1.2,23.9-1.2,23.9s-41.1-12.2-48.5,2.9c-11.3,23.2,56.3,42.4,56.3,42.4s-29-0.3-23.7,15.3
			C195.1,722.7,332.6,710.7,332.6,710.7z"/>
		<path id="XMLID_252_" class="st8" d="M154.4,641.4c7.4-15.1,48.5-2.9,48.5-2.9s-11.5-12.8,1.2-23.9c12.7-11.1,49.3,22.1,49.3,22.1
			s-3.8-27.3,23.7-3.3c19.7,17.2,55.5,77.3,55.5,77.3L154.4,641.4z"/>
	</g>
	<g id="XMLID_425_">
		<g id="XMLID_426_">
			<g id="XMLID_443_">
				<path id="XMLID_251_" class="st8" d="M279.5,542.6l2-1.3c-35.6-53.8-46.4-117.8-49.3-161.9c-3.1-47.9,2.3-83.5,2.4-83.9
					l-2.4-0.7c-0.1,0.4-5.5,36.2-2.4,84.4C232.7,423.7,243.6,488.2,279.5,542.6z"/>
			</g>
			<g id="XMLID_441_">
				<path id="XMLID_250_" class="st8" d="M241.6,287.1c0.1,10.8-3.7,19.8-9.7,25.1c-6.1-7.7-10-18.2-10.1-29
					c-0.1-10.8,3.7-19.8,9.7-25.1C237.7,265.8,241.6,276.3,241.6,287.1z"/>
			</g>
			<g id="XMLID_439_">
				<path id="XMLID_249_" class="st8" d="M222.4,311.4c6.1,9.6,8.5,20.3,7.6,29.5c-8.3-2.4-16.7-8.8-22.8-18.3
					c-6.1-9.6-8.5-20.3-7.6-29.5C207.9,295.4,216.3,301.8,222.4,311.4z"/>
			</g>
			<g id="XMLID_437_">
				<path id="XMLID_248_" class="st8" d="M212.7,340.5c8.7,6.1,15,15.2,17.9,24.7c-7.7,2.1-17,0.4-25.7-5.7
					c-8.7-6.1-15-15.2-17.9-24.7C194.6,332.6,203.9,334.4,212.7,340.5z"/>
			</g>
			<g id="XMLID_435_">
				<path id="XMLID_247_" class="st8" d="M224,391.2c3.8,2.3,6.7,5.9,8.2,9.8c-3.1,1.2-7.1,0.7-10.9-1.5c-3.8-2.3-6.7-5.9-8.2-9.8
					C216.3,388.5,220.2,388.9,224,391.2z"/>
			</g>
			<g id="XMLID_433_">
				<path id="XMLID_246_" class="st8" d="M227.1,410c3.8,2.3,6.7,5.9,8.2,9.8c-3.1,1.2-7.1,0.7-10.9-1.5c-3.8-2.3-6.7-5.9-8.2-9.8
					C219.4,407.3,223.3,407.7,227.1,410z"/>
			</g>
			<g id="XMLID_431_">
				<path id="XMLID_245_" class="st8" d="M242.8,333.9c7-4,15.2-3.9,22.5-0.6c-1.2,8.1-5.6,15.3-12.6,19.3c-7,4-15.2,3.9-22.5,0.6
					C231.4,345.1,235.8,337.9,242.8,333.9z"/>
			</g>
			<g id="XMLID_429_">
				<path id="XMLID_244_" class="st8" d="M244.2,362.2c7-4,15.2-3.9,22.5-0.6c-1.2,8.1-5.6,15.3-12.6,19.3c-7,4-15.2,3.9-22.5,0.6
					C232.8,373.4,237.2,366.2,244.2,362.2z"/>
			</g>
			<g id="XMLID_427_">
				<path id="XMLID_243_" class="st8" d="M242.8,402.7c4.6-2.6,9.9-2.6,14.7-0.4c-0.8,5.3-3.6,10-8.2,12.5
					c-4.6,2.6-9.9,2.6-14.7,0.4C235.4,410,238.3,405.3,242.8,402.7z"/>
			</g>
		</g>
	</g>
	<g id="XMLID_421_">
		<path id="XMLID_242_" class="st9" d="M744.5,562.4c4.1,0.7,3.9,1.3,4.4,1.4c0.6,0.1,8.1-3.7,8.1-3.7s22.1-10.9,23.2-11.5l15.9-20
			l12.3,5.7c0,0-17.9,21.3-19,22.2c-1.1,0.9-32.8,12-35.5,13.1c0,0-2.8,2.5-4.6,4.1c-1.8,1.5-4.2,2.1-4.8,2.5
			c-0.1,0.1-2.1,1.1-4.9,1.7c-2.4,0.5-0.4-1.1-0.4-1.1s4.3-1.8,4.1-2.1c-0.2-0.3-2.4,0.9-5.1,1.5c-0.7,0.2-1.4,0.3-2,0.4
			c-1.6,0.4-2.3-0.6-0.7-1.2c0.6-0.2,1.6-0.6,2.3-0.7c0.8-0.2,1.5-0.6,2.1-0.8c1.3-0.5,2.2-0.8,2.2-0.9c-0.1-0.1,0.1-0.3-0.6-0.2
			c-0.9,0.2-2.7,1-4,1.1c-0.7,0.1-2.3,0.4-2.3,0.4s-2.7,0.3-2.8-0.1c0-0.8,1.6-1.3,2.7-1.3c0.7-0.3,2.3-0.6,2.3-0.6s3.2-1.3,3-1.7
			c-0.1-0.2-2,0.1-4,0.2c-2.2,0.1-3.7,0.1-3.8-0.3c-0.2-0.7,1.5-0.9,1.5-0.9s1.5-0.2,2-0.3c0.6-0.1,2.3-0.7,2.3-0.7s5.8-2.1,5.6-2.6
			c-0.2-0.4-1.2-1.3-1.6-1.3c-0.4,0-1.1,0.4-1.6,0.4c-0.4,0-1.3-0.1-1.4-0.6c-0.1-0.5,2.2-1.6,2.2-1.6S743.4,562.2,744.5,562.4z"/>
		<path id="XMLID_241_" class="st10" d="M785.1,541c0,0,4,3.6,5.6,4.8c1.4,1,8.1,4.2,8.1,4.2s6.7-10.2,9.6-15.3
			c3.5-6.2,6-15.4,5.1-15.7c-2.3-0.7-5.6-1.1-8.5,0.2C794.7,524,785.1,541,785.1,541z"/>
		<path id="XMLID_240_" class="st11" d="M748.4,567.7c-1.8,0.3-3.6-0.1-4.4-1.7C743.9,568,746.8,568.9,748.4,567.7z"/>
	</g>
	<path id="XMLID_239_" class="st12" d="M254.8,496.2c0.2-5.9-0.6-11.8-3.3-17.3c-2.3-4.8-7.9-7.5-13-7.5c-16.3,0-18.4,21.6-28.8,30
		c-3.2,2.6-6.7,4.6-9.7,7.4c-11.1,10.2-6.1,29,4.1,37.9c7.1,6.2,18.2,9.7,26.9,4.9c4.5-2.5,8-6.7,10.4-11.3c3.5-6.5,5.7-14,8.2-21
		C252.2,511.8,254.5,504.1,254.8,496.2z"/>
	<path id="XMLID_238_" class="st13" d="M257.5,525c-5.1-15.4-11.8-15.2-11.8-15.2l5.4,32.9c3.1-0.9,7.2-2.8,10.4-3.7
		C260.4,534.1,258.7,528.8,257.5,525z"/>
	<path id="XMLID_237_" class="st14" d="M283.2,577.7l-18.6-14.2c0,0-1.9-13.3-4.4-25c-3.1,0.9-6,3.4-9.1,4.2l4.7,26.3l24.4,12.6
		l6.9,8.9l1.6-9.1L283.2,577.7z"/>
	<path id="XMLID_236_" class="st15" d="M203.8,687.4c0,0-1.1,8-3.1,10.6c-0.7,0.9-1.9,2-2.7,3.5c-1.2,2.4-0.6,6.1,0.4,8.1
		c0.5,1,0,1,1,1.4c3.2,1,6.5-0.7,7.9-3.7c0.8-1.7,1.4-4,1.5-6.8c0.3-7.3,2.6-10.9,2.6-10.9L203.8,687.4z"/>
	<path id="XMLID_235_" class="st15" d="M238.4,691c0,0,0.7,9,0.1,11.9c-0.3,1.6-2,4.8-1.2,6.3c0.8,1.5,1.7,1.8,1.7,1.8l20.4,0.3
		c1.1,0,0.4-0.7-0.5-1.4c-1.5-1.1-2.7-1.8-7.3-4.1c-0.3-0.1-1.4-0.9-1.8-1.1c-1-0.6-2-1.6-2.9-2.6c-1.5-1.6-1.6-9.6-1.6-9.6
		L238.4,691z"/>
	<path id="XMLID_234_" class="st10" d="M254.3,571.3c0,0,2.6,14.6,0.9,24.2s-9.8,98.4-9.8,98.4l-9,0.5c0,0-1.9-37.1-1.5-42.3
		c0.3-5.2,3-13.8,3-13.8l-0.9-30l11.4-39.4L254.3,571.3z"/>
	<path id="XMLID_233_" class="st16" d="M227.9,568.2c0,0-7.1,10.7-8.8,19.5c-1.7,8.8,1.2,36-2,47.6c-1.8,6.3-8.4,16-9.4,24.1
		c-1,8.1-5,29.4-5,29.4l9,1.8l20.9-53.1l16.4-48l4.2-24.7L227.9,568.2z"/>
	<path id="XMLID_232_" class="st13" d="M233.6,507.4c0,0-9.4-0.6-13.1,3.5c-3.7,4.1,8.2,36.1,8.9,41.3c0.7,5.2-3.4,18.9-3.4,18.9
		s22,4.4,28.3,0.3c0,0,0.7-37.1,0-40.8c-0.7-3.7-6.3-18.7-7.6-20.2C245.3,508.9,233.6,507.4,233.6,507.4z"/>
	<path id="XMLID_231_" class="st15" d="M236.8,494.8c0,0,0,0.3-0.1,0.7c-0.4,2.3-2,9.8-3.1,11.8c-1.3,2.5,4.5,10.4,10.1,9.5
		c1.7-0.3-1.4-7.3-1.3-8c0.3-1.4,0.7-3.4,1.1-5.4c0.2-1.1,0.4-2.3,0.7-3.3c0.6-3,1.1-5.5,1.1-5.5L236.8,494.8z"/>
	<path id="XMLID_230_" class="st17" d="M236.6,495.6c0.1-0.5,0.1-0.7,0.1-0.7l8.4-0.2c0,0-0.5,2.5-1.1,5.5c-0.2,1.1-0.4,2.2-0.7,3.3
		c-1.3-0.2-2.6-0.8-4-2c-1.5-1.3-2.4-2.9-3-4.5C236.5,496.4,236.6,495.9,236.6,495.6z"/>
	<path id="XMLID_229_" class="st15" d="M242.4,475.7c0,0-4-0.5-6.4,2.8c-2.5,3.2-5.2,13.2,1,18.6c6.2,5.4,12.2-0.7,13.1-7.2
		C251,483.3,251.4,475.5,242.4,475.7z"/>
	<path id="XMLID_228_" class="st15" d="M251.9,489.7c-0.7,1.4-2,2.2-2.8,1.8c-0.8-0.5-0.8-2-0.1-3.4c0.7-1.4,2-2.2,2.8-1.8
		C252.6,486.8,252.7,488.3,251.9,489.7z"/>
	<path id="XMLID_227_" class="st12" d="M242.8,474.7c0,0-5.3,9.5-9.1,9.9c-3.8,0.4-4.3,5.5-4.3,5.5s1.4-11.6,5.1-13.8
		C238.3,474,242.8,474.7,242.8,474.7z"/>
	<path id="XMLID_226_" class="st17" d="M207.9,705.5c-4.9,0.9-8.2-2-9.9-4.1c-1.2,2.4-1.9,6.1-0.9,8.1c0.8,1.8,3.2,1.7,5,1.8
		c2,0.1,3.5-1,4.5-2.7C207,707.7,207.5,706.7,207.9,705.5z"/>
	<path id="XMLID_225_" class="st17" d="M249.7,704.8c-5.4,1.4-9.4,0.4-11.6-0.5c-0.6,1.6-1.3,3.7-0.9,4.9c0.5,1.4,1.2,1.8,1.8,1.8
		c4.9,0.1,18.1,0.3,21.8,0.4c0.5,0,0.8-0.6,0.5-1C260.3,709.3,250.1,705.1,249.7,704.8z"/>
	<path id="XMLID_224_" class="st15" d="M234.8,486.9c0.3,1.7-0.3,3.2-1.4,3.4c-1.1,0.2-2.2-1-2.5-2.6c-0.3-1.7,0.3-3.2,1.4-3.4
		C233.3,484.1,234.5,485.2,234.8,486.9z"/>
	<path id="XMLID_223_" class="st2" d="M240.9,492.7l4.8,0.2c0,0-0.2,1.8-2.3,1.8C240.9,494.7,240.9,492.7,240.9,492.7z"/>
	<g id="XMLID_380_">
		<path id="XMLID_222_" class="st18" d="M697.3,114.7c0.6,0,2.2,0.6,4.6,5.1c3,5.7,7.5,23.1,7.5,23.1l-13.3,4.9l-1.7-3.6l-2.8-27.9
			C691.7,116.3,697.2,114.7,697.3,114.7z"/>
		<path id="XMLID_221_" class="st17" d="M679.8,112.2c3.8,0,13.2,1.1,17.5,2.5c0,0,3.2,27.5-2.9,48.4c-1.4,4.7,1.1,19.4,1.1,19.4
			l-39.3-0.5c0,0,4.7-35.6,2.9-41.3c-1.8-5.7-1.8-25.8-1.8-25.8s0.3,0,8.8-1.5C670.2,112.7,675.8,112.2,679.8,112.2z"/>
		<path id="XMLID_220_" class="st15" d="M675.2,233.5c0,0,0.9,10,2.5,12.8c1.6,2.8-0.1,7.5-0.2,8.2c-0.1,0.6-3.4,1.6-8.6,1
			c-5.2-0.6-5.1-1.8-4.7-3.7c0.4-1.9,3.2-4.4,3.4-6.3c0.2-1.9-1.6-8.5-1.6-8.5L675.2,233.5z"/>
		<path id="XMLID_219_" class="st19" d="M691.2,174.2c0,0,27.1-1.5,33.2,2.2c6.1,3.7-4.3,21.7-4.3,21.7s-18.9-0.9-55.9,1.3
			c-8.8,0.5-9.5-22.8-7.9-24.8C657.9,172.6,691.2,174.2,691.2,174.2z"/>
		<path id="XMLID_218_" class="st18" d="M668.3,256.3c-5.4-0.6-4.7-3.2-4.3-5.2c0.3-1.3,1.8-2.7,2.7-4.1c0.5,0.4,1.3,1.1,3.6,1.7
			c2.4,0.7,5.7-0.7,7.9-1.6c0.8,2.8,0.8,6.4,0.7,6.9C678.8,254.7,673.7,256.9,668.3,256.3z"/>
		<path id="XMLID_217_" class="st13" d="M671.3,193.6c1.1,8.2,6.5,49,6.5,49l-12.5,1.5c0,0-15.3-53.3-14.5-61.4
			c0.8-8.2,6.5-8.8,6.5-8.8S668.4,171.9,671.3,193.6z"/>
		<path id="XMLID_216_" class="st15" d="M657,117.9c3.7-1.4,5.5,31.7,6,45.4c6.5,0.6,17.8,0,20.7-0.2c1.3-0.1,4.4-1.2,5.7-1.4
			c1.4-0.2,2.6-0.3,3.2-0.2c0.2,0,7,2.8,7.6,3.4c0.7,0.8,2.7,2.7,2.3,3.5c-0.3,0.8-3.7-2.3-3.7-2.3l-1.7-0.9c2.1,2,6,4.7,5.5,5.7
			c-0.6,0.9-4.1-1.8-6.7-3.6c2.2,2,4.9,5.5,4.3,6.1c-0.6,0.5-3.6-3.6-6.9-4.8c-1.2-0.4-2.4,0.8-3.4,0.9c-0.7,0.1-1.8,0.3-2.5,0.1
			l-3.6-1c-1.2,0.1-1.2,0.8-2.5,1.1c-1.4,0.3-3.8,0.6-5.6,1.1c-10.5,2.6-13.9,3.7-17.2,3.7C648.8,174.5,648.3,121.2,657,117.9z"/>
		<path id="XMLID_215_" class="st18" d="M650,149c-0.7-14-0.6-31.2,7.2-34.1c3.1-1.2,8.5,5.8,7.6,34.4
			C660.6,149.6,654.5,149.9,650,149z"/>
		<path id="XMLID_214_" class="st15" d="M711.6,242.1c0,0-1.1,3.5,0.9,5.8c1.9,2.3,10,4.6,11.1,5.8c1.1,1.2,1,2.3,1,2.3l-22.7-0.6
			l0.2-6.9l1-4.9L711.6,242.1z"/>
		<path id="XMLID_213_" class="st18" d="M713.9,249c0,0-5.8,2.4-8.6,1s-2.7-1.8-3.5-1.3c-0.8,0.5-1.1,6.9-1.1,6.9l25.5,0.7
			c1.8,0,2.7-1.3,1.2-2.5c-1-0.8-2.1-1.3-2.8-1.7C722.6,251.2,713.9,249,713.9,249z"/>
		<path id="XMLID_212_" class="st13" d="M710.8,180.6c1.8-3.7,5.7-8.5,12.8-5.6c6.7,2.8,8.5,9.5,6.4,16.5
			c-2.1,6.9-16,47.8-16.5,53.4l-11.1,0.1c0,0,2-32.3,2.5-40.2C705.3,197.3,707.7,187,710.8,180.6z"/>
		<path id="XMLID_211_" d="M728.8,143h-37.1c-1,0-1.9,0.6-2.2,1.5l-11.4,28h-20.5c-0.6,0-1,0.5-1,1l0,0c0,0.6,0.5,1,1,1h58.2
			c1.6,0,3.1-0.9,3.7-2.4l11.5-25.7C731.7,144.8,730.6,143,728.8,143z"/>
		
			<ellipse id="XMLID_210_" transform="matrix(0.9805 0.1967 -0.1967 0.9805 45.0579 -135.919)" class="st2" cx="706.8" cy="158.9" rx="2" ry="2.3"/>
		<g id="XMLID_382_">
			<path id="XMLID_209_" class="st20" d="M688.6,78.6c-1.1-0.4-2.2-0.8-3.3-1.3c-1.2-0.6-2.8-1.3-3.7-1.4c-2.1-0.3-5.6-0.1-7.6,2
				c-2.4,2.7-6.8,0.5-5.9,14.4c1,15.7,9.7,14,10,13.7c0.2-0.3,7.8-10.1,7.8-10.1s2.7,5.8,2.7,5.6C688.5,101.3,702.1,83.1,688.6,78.6
				z"/>
			<path id="XMLID_208_" class="st15" d="M682,107.2l0.8,5.6c0,0,1.7,8.1-0.5,9.7c-2.2,1.6-9.3-9.9-9.3-9.9l0.7-14.3L682,107.2z"/>
			<path id="XMLID_207_" class="st17" d="M673.5,102.9c1.8,4.9,6.1,7.8,9.1,9l-0.6-4.8l-8.2-8.9L673.5,102.9z"/>
			<path id="XMLID_206_" class="st15" d="M681.5,82.8c4.6-0.7,8.8,3,8.6,7.6c-0.1,2-0.2,4.5-0.6,7.2c-1,6.5-5.4,12.2-8.4,11.7
				s-10.3-6.1-9-15.4C673,88.3,676.7,83.6,681.5,82.8z"/>
			
				<ellipse id="XMLID_205_" transform="matrix(0.9851 0.1717 -0.1717 0.9851 26.2457 -114.0092)" class="st15" cx="672.1" cy="94.7" rx="2.1" ry="2.6"/>
			<path id="XMLID_204_" class="st20" d="M672.6,92.1c0,0,3.5,0.9,4.9-1.4c1.3-2.3,6-7.2,12-5.2c6,2-5.3-5-5.7-5c-0.5,0-6.2,0-6.2,0
				s-4.4,3.6-4.6,4c-0.2,0.4-1.4,4.8-1.4,4.8L672.6,92.1z"/>
		</g>
		<path id="XMLID_203_" class="st2" d="M679,101.6l6.4,1.2c0,0-0.6,2.4-3.5,2C678.5,104.3,679,101.6,679,101.6z"/>
	</g>
	<g id="XMLID_357_">
		<path id="XMLID_202_" class="st9" d="M278.2,549.4c0.2,0.8,0.4,1.1,0.7,1.7c2,3.7,6.7,8.9,6.7,8.9l3.6-8.2c0,0-0.6-2.6-1.6-6.2
			C284.1,546.5,280.8,547.1,278.2,549.4z"/>
		<path id="XMLID_201_" class="st12" d="M299,542.3c0,0-20.2,8.7-20.9,8.5c-0.4-0.1-8.3-13.3-8.4-25.7c0-5.7,5.9-12.6,12.5-11.3
			c3.3,0.7,3.3,1.6,8.2,8.8C295.5,529.9,299,542.3,299,542.3z"/>
		<path id="XMLID_200_" class="st15" d="M316.3,698.5c0,0-0.5,7.9-0.5,8c-0.2,1-0.9,3.5-0.9,4.4c0,3.4,16.4-2.9,12.7-4.5
			c-0.3-0.1-2.1-1.2-2.2-2.4c-0.2-1.8-0.6-5.5-0.6-5.5L316.3,698.5z"/>
		<path id="XMLID_199_" class="st18" d="M327.6,706.4c0,0-3.8,1.1-5.8,1.3c-2,0.3-4.6-2-6-1.4c-1.5,0.7-1.5,6.6-1.5,6.6
			s20.6,1.7,26.4-0.1C343,712.2,335.4,708.8,327.6,706.4z"/>
		<path id="XMLID_198_" class="st15" d="M282.8,698.5c0,0-0.5,7.9-0.5,8c-0.2,1-0.9,3.5-0.9,4.4c0,3.4,16.4-2.9,12.7-4.5
			c-0.3-0.1-2.6-2-2.7-3.1c-0.2-1.8-0.1-4.7-0.1-4.7L282.8,698.5z"/>
		<path id="XMLID_197_" class="st18" d="M294.1,706.4c0,0-3.8,1.1-5.8,1.3c-2,0.3-4.6-2-6-1.4c-1.5,0.7-1.6,6.6-1.6,6.6
			s20.7,2,26.5-0.1C309.5,712.1,302,708.8,294.1,706.4z"/>
		<g id="XMLID_371_">
			<path id="XMLID_196_" class="st15" d="M287.8,553.8l14.4-20.2c0.1-0.2,0.2-0.5,0.4-1.1c0.7-2,2.2-6.2,3.6-10.3l0,0
				c0.4-1.4,1.3-4,2.1-6.4c0.9-2.7,2.1-6.1,2.2-6.7c0-0.1-0.1-0.3-0.2-0.5c-0.5-1.4-1.2-4.6-1.5-6.1c-0.2-0.9-0.3-3.1,0.8-3.1
				c1.7,0,0.9,2.2,1.7,3.6c0.3-0.9,0.9-2.7,1.2-4.6l0.3-4.3c0.1-0.3-0.3-2.7,0.9-2.7l0.1,0c1.1,0.1,1,2.6,1.5,6.9
				c0.1-0.5,0.3-1.1,0.4-1.6c0-0.3,0.2-1.6,0.4-2.2c-0.2-1.2-0.1-3.1,1.2-2.9c0.6,0.1,0.6,2.7,0.6,2.7c0,0.4,0,3.1,0,3.7
				c0.1-0.9,0.6-4.9,1.6-4.9c0.8,0,0.9,1.1,0.9,1.9c0,0.5-0.5,4.8-0.6,5.3c0.4-0.6,0.8-4.4,1.2-4.4c1.6,0,1,5.4,0.4,6.8
				c-0.1,0.1-0.1,0.4-0.2,0.7c-0.2,1-0.5,2.6-1.4,4c-1,1.7-2.4,4.5-2.6,4.9c-0.2,0.9-0.6,3.9-1.2,7.8c-0.3,1.7-0.5,3.5-0.8,5.3l0,0
				c-0.1,0.4-0.4,1.7-1.5,6.6c-1.6,6.6-1.7,6.9-1.8,7c-0.7,1.2-16.2,22.3-16.9,23.2l-0.4,0.5L287.8,553.8z"/>
			<path id="XMLID_195_" class="st17" d="M314.6,506.7c0,0-1.2-3-3.3-3c0,0,1.2-0.4,2.2,0.4C314.5,504.9,314.6,506.7,314.6,506.7z"
				/>
		</g>
		<g id="XMLID_365_">
			<path id="XMLID_194_" class="st15" d="M284.3,501l-1.9,11.7c0,0,7.1,5.7,11.2,4.5c3.5-1,1.1-5.5,1.1-5.5s-1.8-6.3-1.3-9.5
				C294,498.8,284.3,501,284.3,501z"/>
			<path id="XMLID_193_" class="st11" d="M285.7,504.5c1.8,0.8,5.3,2,8,2.3c-0.3-1.6-0.4-3.4-0.2-4.7c0.3-1.5-1.7-1.9-3.8-1.8
				c-2.8,0.2-5.3,0.7-5.3,0.7l-0.4,2.3C284.5,503.8,285.1,504.2,285.7,504.5z"/>
			<path id="XMLID_192_" class="st15" d="M275.4,487.4c-0.3,0,2.8,13.1,7.6,15.4c4.8,2.3,11.9,1.1,13.2-2.4
				c1.5-3.9-3.9-17.3-10.6-19C278.9,479.7,275.4,487.4,275.4,487.4z"/>
			<path id="XMLID_191_" class="st12" d="M281,475.4c-3.8,2.2-5.6,5.5-6.2,6.8c-1.8,0.8-4,2.7-5,7.6c-1.3,6.1,3.3,10.8,8.1,12.2
				c4.8,1.4,5.6,4.6,5.6,4.6l0.5-3.4c0,0-1.1-3-2.7-4.5c-1.6-1.5,0.8-3.7,1-5.5c0.2-1.4-0.8-4-0.6-6.3c0,0,2.7-4.1,5.3-5.1
				C291.5,480.2,285.8,472.6,281,475.4z"/>
			<path id="XMLID_190_" class="st15" d="M283,495.5c0.6,1.5,0.4,3-0.6,3.4c-0.9,0.3-2.2-0.6-2.8-2.1c-0.6-1.5-0.4-3,0.6-3.4
				C281.1,493.1,282.4,494,283,495.5z"/>
		</g>
		<path id="XMLID_189_" class="st9" d="M300.8,554.1l27.8-4.5c0,0-3.2-8-4.3-8s-21,8.7-21,8.7l-1.6,3.2L300.8,554.1z"/>
		<path id="XMLID_188_" class="st21" d="M286.5,573.2c0,0-2.8,13.4-1.6,23.6c1.1,10.2,1.2,46.3,1.2,46.3l-4.3,57.8L292,701
			c0,0,12.1-57.7,11.9-56.2c-0.2,1.5,4.1-40.6,4.1-40.6l-14.5-32.2L286.5,573.2z"/>
		<path id="XMLID_187_" class="st12" d="M289.2,572.6c0,0-1.8,12.1,0.5,17.4c2.3,5.3,19.4,57.2,19.6,61.5c0.2,4.2,5.9,51,5.9,51
			l11.9-0.3l2.6-52l-5.4-65.4l-5.2-16.5L289.2,572.6z"/>
		<path id="XMLID_186_" class="st15" d="M282.5,512.7c0,0,2.9,1.9,5.7,1.7c2.7-0.2,6.6-2.7,6.6-2.7l-0.5-1.8c0,0-7.1-1-7.3-0.9
			C286.8,509,282.5,512.7,282.5,512.7z"/>
		<path id="XMLID_185_" class="st9" d="M313.7,541.3c0,0,10.5,9.9,15.3,8.2c4.7-1.7,6.7-7.5-4.9-16
			C313.8,525.9,313.7,541.3,313.7,541.3z"/>
		<path id="XMLID_184_" class="st10" d="M320.9,553.5c-1.6-8.5-12.9-34.9-13.8-39.8c-0.4-2.4-6.5-2.4-12.4-2.1
			c-6.1,0.3-12.2,1.1-12.2,1.1s-5.4,0.9-7.8,3.1c-2.4,2.2-3,8.4,0.4,20.2c2.7,9.3,6.1,14.4,7.7,21.2c0.3,2.3,0.6,4.5,1,7.1
			c0.6,10.1,0,23.5,0,23.5s29.6,6.1,40.7-3.2C324.5,584.6,322.5,562.2,320.9,553.5z"/>
		<path id="XMLID_183_" class="st16" d="M328.4,535.2c0,0-11.6,9.6-12.3,9.6c-0.4,0-16.6-11.9-20.3-21.6c-2.1-5.4,2.3-11.4,7.2-11.4
			c3.4,0,4.9,0.9,11.7,6.6C321.5,524.1,328.4,535.2,328.4,535.2z"/>
	</g>
	<path id="XMLID_182_" class="st12" d="M366.4,105.8c1.9-4.6,3.8-9.2,8.8-11.5c4-1.9,8.2-1.2,11.7,1.5c10.1,7.6,1.3,15.9,12.7,30.2
		c3.6,4.5,7.9,8.1,10,13.3c3,7.3-0.6,10.8-6.3,14.3c-27.3,16.8-41.5-17.6-41-25.5C362.7,122.3,365.1,108.7,366.4,105.8z"/>
	<path id="XMLID_181_" class="st15" d="M338.1,194.9c1.1-0.2,3.9-2.2,4.9-2.4c0.8-0.1,2.4-0.4,3.1-0.5c0.9-3.2,5.2-20.8,5.7-25.9
		c0.5-5.6,4.5-29.7,4.5-29.7l10.2,1.9c0,0-4.2,18.5-5.4,27.5c-1,7.7-9.5,25.1-10.6,26.9c0,0,0,0.1,0,0.1c-0.2,2.7-1.5,1.8-1.5,1.8
		l-2.1,0.5c0,0-7.6,0.7-8,0.9C338.4,196.4,336.9,195.1,338.1,194.9z"/>
	<path id="XMLID_180_" class="st22" d="M365.2,122.4c-7.2,2.4-11.3,22.1-11.3,22.1s11.3,3.2,14.2,1.5c0,0,3.3-14.6,4.5-14.1
		L365.2,122.4z"/>
	<path id="XMLID_179_" class="st15" d="M309.4,228.8c-2.2,5.8-3.4,11.4-3.5,12.1c0,0.3,0.4,1.9,0.4,2.2c-4.4,6-10.8,7.4-16.3,7.8
		c2.8-2.7,6.9-5.3,7.1-6.2c0.3-1.4,2-7.5,2.8-15.9C303.4,230.4,305.7,229.2,309.4,228.8z"/>
	<path id="XMLID_178_" class="st4" d="M372.2,163.7l9.8,27.5c0,0-15.7,2.9-21.5,4c-5.9,1.1-38.6,2.5-39.4,3.1
		c-0.6,0.4-7.4,22.3-10.4,34.4c-3.4,0.8-9.3-0.2-12.4-1.2c1.7-17.3,7.8-44.6,9.7-47.6C311.1,179,372.2,163.7,372.2,163.7z"/>
	<path id="XMLID_177_" class="st15" d="M334.1,240.9c-1.1,6.1-1.2,11.9-1.1,12.5c0,0.3,0.8,1.8,0.8,2.1c-3.2,6.8-9.2,9.3-14.5,10.7
		c2.2-3.2,5.8-6.5,5.8-7.4c0.1-1.4,0.6-7.7-0.2-16.2C328.5,243.6,330.5,241.9,334.1,240.9z"/>
	<path id="XMLID_176_" class="st6" d="M383.6,165.1l3.8,6.5c5.8,9.8,1.3,22.5-9.3,26.6c-0.1,0-0.1,0-0.2,0.1
		c-5.6,2.2-37.4,9.7-38.1,10.4c-0.5,0.5-3.1,23.3-3.8,35.7c-3.2,1.4-9.2,1.6-12.4,1.1c-1.6-17.3-0.7-45.3,0.6-48.5
		C326.4,191.6,383.6,165.1,383.6,165.1z"/>
	<path id="XMLID_175_" class="st12" d="M332.5,253.6c0.8-0.9,4,4.2,4.7,5.3c0.9,1.2,0.6,2.2,0.5,2.4c-0.3,0.5-16.7,10.2-20.7,10.9
		c-0.4,0.1-1-0.2-1.2-0.3c-1.6-1.4,5.6-11.6,8.9-13C326.8,258,328.7,257.8,332.5,253.6z"/>
	<path id="XMLID_174_" class="st12" d="M305.4,241.1c1-0.8,3.1,4.9,3.7,6.1c0.6,1.4,0.2,2.3,0.1,2.4c-0.4,0.4-18.3,6.9-22.4,6.8
		c-0.4,0-1-0.4-1.1-0.5c-1.3-1.7,7.7-10.4,11.2-11.1C299,244.4,300.9,244.5,305.4,241.1z"/>
	<path id="XMLID_173_" class="st23" d="M372.1,122.3L372.1,122.3L372.1,122.3c-0.2,0-0.5-0.1-0.7-0.2c-1.3-0.2-4.3-0.6-6.5,0.4
		c-2.8,1.2-7.1,12.1-6.8,23.3c0.1,1.7,0.2,3.3,0.3,4.3c0.7,8.5,3.1,24.4,3.3,24.5c3.3,2.1,23.3-6.1,24.6-7.9
		c1.4-1.8,2.2-23.8,2.8-24.9l1.3-19.2C388,121.9,375.6,122.3,372.1,122.3z"/>
	<path id="XMLID_172_" class="st15" d="M380.2,115.3c0,0-1.3,6.6-1,9.3c0.3,2.6-1,11.1-6.5,11.1c-5.5,0-1.1-10.7-0.5-13.3
		s0.6-10.5,0.6-10.5L380.2,115.3z"/>
	<path id="XMLID_171_" class="st17" d="M372.6,115.8c0.1-2.2,0.1-4,0.1-4l7.4,3.5c0,0-0.3,1.4-0.5,3.1
		C376.4,119,374,117.8,372.6,115.8z"/>
	<path id="XMLID_170_" class="st15" d="M382.9,96.9c0,0,2.9,1.6,3.9,5c1,3.4-0.1,12.3-7.6,14.5c-7.4,2.1-10.6-4.9-9.1-10.4
		C371.7,100.5,375,93.6,382.9,96.9z"/>
	
		<ellipse id="XMLID_169_" transform="matrix(-0.9952 9.758192e-02 -9.758192e-02 -0.9952 749.9327 170.8561)" class="st15" cx="370.8" cy="103.8" rx="1.6" ry="2.7"/>
	<path id="XMLID_168_" class="st12" d="M382,96.5c0,0,1.3,9.9,4.6,11.7c3.2,1.8,1.9,6.2,1.9,6.2s2.9-10.2,0.4-13.5
		C386.3,97.6,382,96.5,382,96.5z"/>
	
		<ellipse id="XMLID_167_" transform="matrix(-0.8296 -0.5583 0.5583 -0.8296 644.8951 418.1511)" class="st15" cx="386.2" cy="110.7" rx="1.9" ry="2.8"/>
	<path id="XMLID_166_" class="st2" d="M373.9,110.2l5.2,1.3c0,0-0.6,2-2.9,1.5C373.3,112.3,373.9,110.2,373.9,110.2z"/>
	<path id="XMLID_165_" class="st7" d="M399.8,194.1c0.3,0,22.5-1.1,22.5-1.1s-9.2,6.6-9.4,6.6c-0.2,0-7.4-2.8-7.7-2.8
		C404.9,196.8,399.8,194.1,399.8,194.1z"/>
	<path id="XMLID_164_" class="st15" d="M850.3,697.3c0,0,0.4,7.8,0.4,7.8c0.2,1,0.8,3.4,0.8,4.3c0,3.4-15-2.9-11.6-4.4
		c0.3-0.1,1.9-1.2,2-2.3c0.2-1.8,0.5-5.4,0.5-5.4L850.3,697.3z"/>
	<path id="XMLID_163_" class="st13" d="M839.8,705.1c0,0,3.5,1,5.3,1.3c1.8,0.3,4.2-1.9,5.5-1.3c1.4,0.6,1.4,6.5,1.4,6.5
		s-18.9,1.7-24.2-0.1C825.6,710.8,832.5,707.5,839.8,705.1z"/>
	<path id="XMLID_162_" class="st15" d="M875.3,696.9c0,0,0.4,7.8,0.4,7.8c0.2,1,0.8,3.4,0.8,4.3c0,3.4-15-2.9-11.6-4.4
		c0.3-0.1,2.4-1.9,2.5-3.1c0.2-1.8,0.1-4.6,0.1-4.6L875.3,696.9z"/>
	<path id="XMLID_161_" class="st13" d="M864.9,704.6c0,0,3.5,1,5.3,1.3c1.8,0.3,4.2-1.9,5.5-1.3c1.4,0.6,1.5,6.5,1.5,6.5
		s-18.8,0.8-24.3-0.1C850.7,710.7,857.7,707,864.9,704.6z"/>
	<path id="XMLID_154_" class="st10" d="M870.9,572.9c0,0,2.5,13.2,1.5,23.2c-1,10-1.1,45.4-1.1,45.4l4.8,56.7l-10.2,0.2
		c0,0-11.1-56.7-10.9-55.3c0.2,1.5-3.7-39.9-3.7-39.9l13.3-31.6L870.9,572.9z"/>
	<path id="XMLID_153_" class="st16" d="M867.3,564.4c0,0,11.5,12.1,7.2,25.4c-1.7,5.3-17.8,56.2-18,60.4c-0.2,4.2-5.4,50.1-5.4,50.1
		l-10.9-0.3l-2.4-51.1l3.1-68.9l6.6-11.6L867.3,564.4z"/>
	<path id="XMLID_152_" class="st17" d="M797.3,524.9c3.8-4.2,12-10.2,12-10.2s4.9-4.2,6.9-4.9c2.9-1,8-3.7,15.2,7.3
		c5.2,7.9,38.1,48.7,43.5,50.1l-35.2,16.8c-1-8-18.4-23.3-20.9-26.1C813.2,551.7,793.7,528.9,797.3,524.9z"/>
	<path id="XMLID_150_" class="st15" d="M799,507.8l11,6.4c0,0,0.3,9.4-3.3,11.8c-3,2-5.3-2.9-5.3-2.9s-4.1-5.7-7.2-7.4
		C791.1,513.9,799,507.8,799,507.8z"/>
	<path id="XMLID_149_" class="st17" d="M800.8,511.9c-0.4,2-1.4,4.8-2.8,7.1c-1.2-1.3-2.6-2.6-3.8-3.3c-1.4-0.8-0.5-2.6,0.9-4.2
		c2-2,3.9-3.7,3.9-3.7l2.1,1.2C801.2,509.8,800.9,511.2,800.8,511.9z"/>
	<path id="XMLID_148_" class="st15" d="M793.2,491.7c0.2-0.2,9.2,11,8.1,16.3c-1.1,5.3-6.6,10.1-10.4,8.7c-4.2-1.5-12-14.7-9.2-21.1
		S793.2,491.7,793.2,491.7z"/>
	<path id="XMLID_147_" class="st12" d="M783.4,488.1c3.9-2.2,10.3-2.8,15.1-0.3c5.9,3.1,7.2,10.8,5.4,15.6c-1.8,4.7,0.3,7.4,0.3,7.4
		L801,509c0,0-1.8-2.8-2.1-5.1c-0.2-2.3-3.6-1.9-5.2-2.9c-1.2-0.8-2.8-3.4-4.8-4.7c0,0-5.1-0.6-7.6,0.8
		C777.1,499.4,777.7,491.3,783.4,488.1z"/>
	
		<ellipse id="XMLID_140_" transform="matrix(-0.9999 -1.643964e-02 1.643964e-02 -0.9999 1587.9504 1018.8149)" class="st15" cx="798.2" cy="502.9" rx="1.8" ry="3"/>
	<path id="XMLID_139_" class="st2" d="M787.1,511.8l4.8-3.6c0,0,1.3,1.9-0.8,3.6C788.6,513.8,787.1,511.8,787.1,511.8z"/>
	<path id="XMLID_94_" class="st9" d="M775.1,582.8c1.2-1.7,1.7-4.3,3.4-6.2c0.6-0.6,1.4-1.4,2.4-2.1c8-4.7,28.7-16.7,29.5-17.6
		c1-1.1,15.1-24.6,15.1-24.6l-12.7-2.9l-12.4,21.9c-1,0.8-20.7,15.4-20.7,15.4s-3.9,3.1-6.1,4.5c-1.1,0.6-2.1,1-3.1,1.4
		c-1.2,0.4-3.4,1.5-3.8,1.9c-0.5,0.5-1.6,1.4-2.2,2c-0.6,0.6-1.4,1.3-1.7,1.6c-0.2,0.2-0.7,0.5-1.1,0.7c-0.6,0.3-0.5,1.2,0.1,1.4
		c0.6,0.2,1.4-0.2,1.9-0.4c1.4-0.7,3.2-2.5,3.3-2.3c0.1,0.2-1.7,4.1-1.9,4.6c-0.2,0.5-2.2,5-2.3,6c-0.1,1,0.5,1.2,1,0.9
		c0.4-0.3,3.7-6.4,3.7-6.4s0.4-0.8,0.6-0.3c0.2,0.4-2.8,5.9-3.1,6.8c-0.3,0.9-0.1,1.6,0.8,1.3c1-0.4,3.8-6.4,3.8-6.4
		s0.4-0.8,0.6-0.5c0.2,0.3-2.3,4.9-2.4,5.4c0,0.5,0.5,1.1,1.2,0.6c0.8-0.5,3.3-5.9,3.3-5.9s0.3-0.4,0.4-0.1c0.1,0.3-1.8,4.4-1.7,5
		c0.1,0.5,0.6,0.4,0.6,0.4C772.6,588.8,773.9,584.6,775.1,582.8z"/>
	<path id="XMLID_93_" class="st10" d="M822,544.7c0,0-4.1-1.3-6.8-2.5c-1.8-0.8-9.5-4.7-9.5-4.7s3.3-14.1,5.6-19.2
		c8.3-18.6,17.7-5.8,19-2.8C833.2,522.3,822,544.7,822,544.7z"/>
	<path id="XMLID_91_" class="st15" d="M422.8,193c-0.1-0.2-0.3-0.2-0.5-0.2c-2.1-0.1-4.1-0.2-6.2-0.5c-0.3-0.1-0.7-0.1-1-0.3
		c-0.6-0.2-1.1-0.2-1.7-0.1c-0.3,0.1-0.6,0.1-0.9,0.1c-1,0-4-1-5.5-1.3c-0.3-0.1-0.6-0.3-0.7-0.7c-1.5-5.9-4.7-19.2-5.1-23.6
		c-0.5-5.6-4.4-30.8-4.4-30.8l-10.3,2.9c0,0,4.2,18.6,5.4,27.6c0.9,7,7.9,21.7,10,26c1.1,3.2,3.5,3.2,4,3.3c0.3,0,0.6,0.2,0.8,0.4
		c0.4,0.4,0.8,0.8,1.3,1.1c0.4,0.2,0.6,0.5,0.9,0.9c0.4,0.6,0.8,1.3,1.2,2c0.3,0.4,0.5,0.6,0.9,0.5c0.4-0.1,0.6-0.4,0.6-0.9
		c0-0.7-0.2-1.4-0.6-2c-0.3-0.6-0.3-0.9,0.1-1.5c0.2-0.3,0.5-0.6,0.8-0.9c0.3-0.3,0.6-0.4,1.1-0.4c0.7,0.2,1.5,0.3,2.3,0.4l0.6,0.1
		c0,0,0.3,0.1,0.3,0.1c0.1,0,1.2,0.1,1.5,0.1c0.3,0,0.8,0,1.2,0c0.4,0,1.2-0.2,1.2-0.2c0.4,0,0.7-0.1,1-0.4c0.1-0.1,0.2-0.2,0.2-0.4
		c-0.1-0.2-0.2-0.2-0.3-0.3c-0.2,0-1.5-0.2-1.5-0.3c0.4,0,1.6,0,2,0c0.5,0,1-0.2,1.3-0.6C422.7,193.3,422.9,193.2,422.8,193z"/>
	<path id="XMLID_67_" class="st23" d="M390.5,122.6c5.1-0.9,9.3,21.9,9.3,21.9s-11.3,3.2-14.2,1.5c0,0-3.3-14.6-4.5-14.1
		L390.5,122.6z"/>
	<path id="XMLID_63_" class="st15" d="M267.3,532.3c0.3-1-4.4-1.7-4.6-2.7c-0.3-1,5.9-1.1,6.2-1.9c0.4-1.6-6.8-0.3-6.6-1.1
		c0.1-0.7,7.5-2.4,6.7-3.7c-0.8-1.3-7.4,2.5-7.6,1.6c-0.2-0.9,6.5-3,6.4-4.8c-0.1-1-11,5-12.3,4.5c-1.3-0.5,1.4-5.3,0.4-6
		c-1-0.7-3.9,9.6-4.6,10c-0.7,0.3-15.5,8.8-20.7,10.1c-0.6-1.8-2-4.1-2.6-5.8c-2.9,2.1-5.1,3.1-8.2,5.1c2.2,5.5,5.3,11.6,6.9,12.3
		c4.7,2.1,22.7-12.9,26.4-15.4c3.6-2.6,5.7-1.7,8.1-2.5C263.4,531,266.9,533.3,267.3,532.3z"/>
	<path id="XMLID_62_" class="st13" d="M219,540.2c0,0-4-17.9-3.3-23.1c0.7-5.2,6.9-10,11.1-8.2c4.3,1.8,6.2,26.7,6.2,26.7L219,540.2
		z"/>
</g>
</svg>
